<svg xmlns="http://www.w3.org/2000/svg" viewBox="0 0 64 64" role="img" aria-label="Paul Serban Blog">
  <rect width="64" height="64" fill="#f2efe7"/>
  <rect x="3" y="3" width="58" height="58" fill="none" stroke="#0d0d0d" stroke-width="3"/>
  <rect x="7.5" y="7.5" width="49" height="49" fill="none" stroke="#0d0d0d" stroke-width="1.25"/>
  <g fill="none" stroke="#0d0d0d" stroke-linecap="round" stroke-linejoin="round">
    <path d="M32 21.5 C 27 18.7 20.5 18 15.5 19.4 V 43.4 C 20.5 42 27 42.7 32 45.5" stroke-width="1.8"/>
    <path d="M32 21.5 C 37 18.7 43.5 18 48.5 19.4 V 43.4 C 43.5 42 37 42.7 32 45.5" stroke-width="1.8"/>
    <path d="M32 21.5 V 45.5" stroke-width="1.4"/>
    <path d="M18.5 24.5 C 22.5 23.5 27 23.9 30 25.5" stroke-width="1.1"/>
    <path d="M18.5 29.3 C 22.5 28.3 27 28.7 30 30.3" stroke-width="1.1"/>
    <path d="M18.5 34.1 C 22.5 33.1 27 33.5 30 35.1" stroke-width="1.1"/>
    <path d="M18.5 38.9 C 22.5 37.9 27 38.3 30 39.9" stroke-width="1.1"/>
    <path d="M45.5 24.5 C 41.5 23.5 37 23.9 34 25.5" stroke-width="1.1"/>
    <path d="M45.5 29.3 C 41.5 28.3 37 28.7 34 30.3" stroke-width="1.1"/>
    <path d="M45.5 34.1 C 41.5 33.1 37 33.5 34 35.1" stroke-width="1.1"/>
    <path d="M45.5 38.9 C 41.5 37.9 37 38.3 34 39.9" stroke-width="1.1"/>
  </g>
</svg>
